<svg height="460pt" viewBox="-31 0 460 460.36125" width="460pt" xmlns="http://www.w3.org/2000/svg" xmlns:xlink="http://www.w3.org/1999/xlink"><linearGradient id="lg1"><stop offset=".322" stop-color="#a163f5"/><stop offset=".466" stop-color="#b074ee"/><stop offset=".752" stop-color="#d8a1dd"/><stop offset=".898" stop-color="#efbad3"/></linearGradient><linearGradient id="linear0" gradientUnits="userSpaceOnUse" x1="93.978729" x2="93.978729" xlink:href="#lg1" y1="456.367622" y2="-22.572378"/><linearGradient id="linear1" gradientUnits="userSpaceOnUse" x1="304.062729" x2="304.062729" xlink:href="#lg1" y1="456.367622" y2="-22.572378"/><linearGradient id="linear2" gradientUnits="userSpaceOnUse" x1="198.847729" x2="198.847729" xlink:href="#lg1" y1="456.367622" y2="-22.572378"/><path d="m184.433594 335.667969c-2.046875-1.011719-4.488282-.773438-6.300782.613281l-7.871093 6.023438c-.175781-1.011719-.292969-2.035157-.355469-3.0625l-.671875-11.578126c-.007813-.164062-.023437-.328124-.046875-.492187-3.292969-23.726563-19.628906-43.597656-42.269531-51.417969l-3.765625-1.3125c-5.035156-1.757812-9.609375-4.625-13.382813-8.390625l-18.070312-18.070312-6.167969-20.863281c-3.132812-11.578126-12.917969-20.140626-24.8125-21.707032l-.792969-2.648437c-.015625-.046875-.027343-.097657-.046875-.144531-3-9.148438-12.691406-15.148438-22.777344-14.914063l-.027343-.089844c-4.113281-13.808593-18.363281-21.9375-32.339844-18.445312-3.082031.765625-5.03125 3.796875-4.453125 6.917969l20.050781 107.902343c.050781.277344.121094.554688.214844.824219 4.796875 14.101562 13.980469 26.300781 26.207031 34.8125l43.792969 30.167969c.105469.074219.214844.140625.324219.207031 2.902344 1.734375 5.042968 4.496094 5.992187 7.742188l7.328125 32.515624c.160156.699219.445313 1.367188.839844 1.96875l-7.972656 6.097657c-1.484375 1.136719-2.351563 2.898437-2.351563 4.765625v51.277344c0 2.207031 1.214844 4.234374 3.160157 5.28125 1.941406 1.042968 4.304687.9375 6.144531-.28125l81.078125-53.570313c1.679687-1.109375 2.691406-2.988281 2.691406-5.003906v-59.746094c0-2.28125-1.296875-4.371094-3.347656-5.378906zm-110.476563-105.382813c.011719.054688.027344.105469.042969.160156l1.269531 4.289063c-2.046875-.878906-4.175781-1.546875-6.359375-1.984375l-4.109375-13.710938c4.515625 2.269532 7.847657 6.363282 9.15625 11.246094zm-25.5-24 7.925781 26.453125c-1.824218.363281-3.609374.882813-5.34375 1.558594l-10.242187-34.230469c3.5625.875 6.625 3.167969 7.65625 6.222656zm60.074219 148.640625c-.023438-.097656-.050781-.207031-.082031-.3125-1.734375-6.183593-5.753907-11.472656-11.242188-14.808593l-43.628906-30.058594c-9.988281-6.957032-17.523437-16.890625-21.53125-28.382813l-18.738281-100.859375c5.800781.808594 10.59375 4.933594 12.265625 10.546875l14.015625 46.859375.960937 3.097656c-.15625.148438-.3125.289063-.464843.441407-1.15625 1.160156-1.792969 2.742187-1.753907 4.378906.039063 1.636719.746094 3.1875 1.953125 4.292969l21.941406 20.039062c6.328126 5.785156 12.121094 12.132813 17.296876 18.96875 2.007812 2.617188 5.753906 3.121094 8.382812 1.132813 2.628906-1.992188 3.160156-5.730469 1.1875-8.375-5.617188-7.417969-11.902344-14.308594-18.769531-20.585938l-16.542969-15.109375c7.648438-3.789062 16.859375-2.285156 22.902344 3.742188l24.605468 24.605468c5.054688 5.042969 11.179688 8.886719 17.921876 11.242188l3.765624 1.308594c18.308594 6.324218 31.550782 22.351562 34.300782 41.527344l.65625 11.328124c.207031 3.5.871094 6.960938 1.980468 10.289063l-44.722656 34.222656zm67.246094 42.640625-69.078125 45.640625v-37.152343l69.078125-52.859376zm0 0" fill="url(#linear0)"/><path d="m393.308594 169.167969c-13.980469-3.488281-28.226563 4.640625-32.335938 18.449219l-.03125.09375c-10.085937-.234376-19.78125 5.765624-22.777344 14.914062-.015624.046875-.03125.09375-.046874.144531l-.792969 2.644531c-11.890625 1.570313-21.675781 10.128907-24.8125 21.707032l-6.164063 20.859375-18.070312 18.070312c-3.777344 3.765625-8.351563 6.632813-13.382813 8.394531l-3.765625 1.308594c-22.640625 7.820313-38.976562 27.691406-42.269531 51.417969-.023437.164063-.039063.328125-.046875.492187l-.671875 11.582032c-.0625 1.023437-.179687 2.046875-.355469 3.0625l-7.871094-6.023438c-1.816406-1.390625-4.257812-1.625-6.304687-.617187-2.046875 1.011719-3.34375 3.097656-3.34375 5.378906v59.746094c0 2.015625 1.011719 3.898437 2.691406 5.007812l81.078125 53.566407c1.839844 1.21875 4.199219 1.324218 6.144532.28125 1.945312-1.046876 3.160156-3.074219 3.160156-5.28125v-51.277344c0-1.867188-.871094-3.628906-2.351563-4.761719l-7.972656-6.101563c.394531-.601562.679687-1.265624.839844-1.96875l7.324219-32.515624c.953124-3.242188 3.09375-6.007813 5.996093-7.742188.109375-.0625.21875-.132812.324219-.207031l43.796875-30.179688c12.222656-8.511719 21.402344-20.707031 26.195313-34.804687.09375-.269532.164062-.542969.214843-.824219l20.050781-107.898437c.578126-3.121094-1.371093-6.152344-4.449218-6.917969zm-43.722656 37.121093c1.03125-3.054687 4.09375-5.347656 7.65625-6.214843l-10.238282 34.226562c-1.730468-.675781-3.519531-1.195312-5.34375-1.558593zm-25.5 24c1.308593-4.882812 4.640624-8.976562 9.15625-11.246093l-4.109376 13.710937c-2.183593.4375-4.3125 1.105469-6.355468 1.984375l1.265625-4.289062c.015625-.058594.027343-.109375.042969-.164063zm-32.746094 212.917969-69.074219-45.640625v-44.371094l69.074219 52.859376zm74.652344-161.84375c-4 11.488281-11.53125 21.421875-21.511719 28.378907l-43.644531 30.066406c-5.488282 3.335937-9.503907 8.628906-11.242188 14.808594-.03125.101562-.058594.207031-.078125.3125l-6.65625 29.523437-44.722656-34.222656c1.109375-3.328125 1.777343-6.789063 1.980469-10.289063l.65625-11.328125c2.753906-19.175781 15.992187-35.203125 34.300781-41.527343l3.761719-1.308594c6.742187-2.355469 12.871093-6.199219 17.925781-11.242188l24.605469-24.605468c6.042968-6.03125 15.257812-7.539063 22.910156-3.75l-16.550782 15.117187c-6.867187 6.277344-13.152343 13.167969-18.769531 20.589844-1.984375 2.640625-1.457031 6.390625 1.175781 8.386719 2.636719 1.992187 6.386719 1.480468 8.394532-1.148438 5.175781-6.835938 10.96875-13.183594 17.296875-18.96875l21.941406-20.039062c1.207031-1.101563 1.914063-2.652344 1.953125-4.292969.035156-1.636719-.597656-3.21875-1.753906-4.378907-.152344-.152343-.308594-.292968-.464844-.441406l.976562-3.148437 14-46.800781c1.667969-5.613282 6.460938-9.738282 12.261719-10.542969zm0 0" fill="url(#linear1)"/><path d="m137.855469 220.734375c19.296875 0 35.003906-13.515625 35.003906-30.125v-102.109375l109.988281-27.132812v54.511718c-6.660156-4.902344-14.734375-7.515625-23.007812-7.449218-19.296875 0-35.003906 13.515624-35.003906 30.128906 0 16.609375 15.699218 30.125 35.003906 30.125 19.308594 0 35.007812-13.511719 35.007812-30.121094v-132.5625c0-1.84375-.847656-3.585938-2.300781-4.722656-1.453125-1.136719-3.34375-1.542969-5.136719-1.101563l-121.988281 30.09375c-2.679687.660157-4.5625 3.0625-4.5625 5.824219v131.839844c-6.660156-4.902344-14.734375-7.519532-23.003906-7.449219-19.300781 0-35.007813 13.515625-35.007813 30.128906 0 16.609375 15.699219 30.121094 35.007813 30.121094zm121.984375-64.046875c-12.683594 0-23.003906-8.132812-23.003906-18.125 0-9.996094 10.320312-18.128906 23.003906-18.128906 12.6875 0 23.007812 8.132812 23.007812 18.128906 0 9.992188-10.320312 18.125-23.007812 18.125zm23.007812-143.027344v35.351563l-109.988281 27.128906v-35.351563zm-144.992187 158.820313c12.683593 0 23.003906 8.132812 23.003906 18.128906s-10.320313 18.125-23.003906 18.125c-12.6875 0-23.007813-8.128906-23.007813-18.125s10.320313-18.128906 23.007813-18.128906zm0 0" fill="url(#linear2)"/></svg>