<?xml version="1.0" standalone="no"?>
<!DOCTYPE svg PUBLIC "-//W3C//DTD SVG 20010904//EN"
 "http://www.w3.org/TR/2001/REC-SVG-20010904/DTD/svg10.dtd">
<svg version="1.0" xmlns="http://www.w3.org/2000/svg"
 width="500.000000pt" height="500.000000pt" viewBox="0 0 500.000000 500.000000"
 preserveAspectRatio="xMidYMid meet">

<g transform="translate(0.000000,500.000000) scale(0.100000,-0.100000)"
fill="#000000" stroke="none">
<path d="M0 2500 l0 -2500 2500 0 2500 0 0 2500 0 2500 -2500 0 -2500 0 0
-2500z m1031 -987 c9 -10 15 -51 17 -120 l4 -103 -36 0 -36 0 0 95 c0 78 -3
95 -15 95 -12 0 -15 -17 -15 -95 l0 -95 -35 0 -35 0 0 95 c0 78 -3 95 -15 95
-12 0 -15 -17 -15 -95 l0 -95 -30 0 -30 0 0 108 c0 71 4 112 12 120 8 8 48 12
114 12 82 0 104 -3 115 -17z m139 -78 l0 -95 60 0 60 0 0 95 0 95 35 0 35 0 0
-104 c0 -135 -1 -136 -126 -136 -136 0 -134 -2 -134 130 l0 110 35 0 35 0 0
-95z m500 70 c0 -25 0 -25 -95 -25 -88 0 -95 -1 -95 -20 0 -18 7 -20 68 -20
96 0 116 -13 120 -75 5 -69 -6 -75 -145 -75 l-113 0 0 25 0 25 100 0 c91 0
100 2 100 19 0 25 -19 31 -100 31 -80 0 -100 13 -100 67 0 64 17 73 147 73
l113 0 0 -25z m318 3 c-3 -20 -10 -23 -50 -26 l-48 -3 0 -70 0 -69 50 0 c47 0
50 -2 50 -25 l0 -25 -130 0 -130 0 0 25 c0 23 4 25 45 25 l45 0 0 70 0 70 -45
0 c-41 0 -45 2 -45 25 l0 25 131 0 c130 0 130 0 127 -22z m312 -3 c0 -25 0
-25 -95 -25 l-95 0 0 -70 0 -70 95 0 c95 0 95 0 95 -25 l0 -25 -114 0 c-145 0
-146 1 -146 116 0 126 -2 124 140 124 l120 0 0 -25z m448 3 c-3 -21 -9 -23
-75 -26 -65 -3 -73 -5 -73 -22 0 -18 7 -20 84 -20 97 0 116 -5 116 -31 0 -14
-7 -19 -25 -19 -34 0 -37 -47 -2 -52 14 -2 23 -11 25 -25 3 -23 2 -23 -108
-23 -61 0 -120 5 -130 10 -17 9 -19 22 -19 107 0 54 5 103 11 110 7 9 40 13
105 13 92 0 94 -1 91 -22z m352 -73 l0 -95 95 0 c95 0 95 0 95 -25 l0 -25
-111 0 c-61 0 -119 5 -130 10 -17 10 -19 22 -19 120 l0 110 35 0 35 0 0 -95z
m500 70 c0 -23 -4 -25 -45 -25 l-45 0 0 -70 0 -70 45 0 c41 0 45 -2 45 -25 l0
-25 -130 0 -130 0 0 25 c0 23 3 25 50 25 l50 0 0 69 0 70 -47 3 c-41 3 -48 6
-51 26 -3 22 -3 22 127 22 l131 0 0 -25z m318 3 c-3 -22 -8 -23 -100 -26 -90
-2 -98 -4 -98 -22 0 -18 7 -20 84 -20 97 0 116 -5 116 -31 0 -16 -10 -19 -97
-21 l-98 -3 -3 -47 c-3 -46 -5 -48 -33 -48 l-29 0 0 108 c0 71 4 112 12 120 8
8 52 12 131 12 117 0 118 0 115 -22z m312 -3 c0 -25 0 -25 -95 -25 -88 0 -95
-2 -95 -20 0 -18 8 -20 93 -22 87 -3 92 -4 95 -25 3 -22 1 -23 -92 -23 -96 0
-96 0 -96 -25 0 -25 0 -25 95 -25 95 0 95 0 95 -25 l0 -25 -114 0 c-145 0
-146 1 -146 116 0 126 -2 124 140 124 l120 0 0 -25z"/>
<path d="M2607 1383 c-4 -3 -7 -15 -7 -25 0 -14 8 -18 40 -18 33 0 40 4 40 19
0 26 -54 44 -73 24z"/>
</g>
</svg>
